<?xml version="1.0" standalone="no"?>
<!DOCTYPE svg PUBLIC "-//W3C//DTD SVG 20010904//EN"
 "http://www.w3.org/TR/2001/REC-SVG-20010904/DTD/svg10.dtd">
<svg version="1.0" xmlns="http://www.w3.org/2000/svg"
 width="1448.000000pt" height="513.000000pt" viewBox="0 0 1448.000000 513.000000"
 preserveAspectRatio="xMidYMid meet">

<g transform="translate(0.000000,513.000000) scale(0.100000,-0.100000)"
fill="#000000" stroke="none">
<path d="M1450 5115 c-8 -2 -49 -9 -90 -15 -221 -36 -417 -144 -605 -334 -268
-269 -432 -644 -502 -1147 -12 -91 -17 -195 -17 -392 l-1 -268 -56 -58 c-141
-149 -204 -397 -153 -611 46 -196 205 -378 373 -426 94 -27 95 -28 120 -95 35
-95 180 -393 246 -505 383 -654 887 -1084 1433 -1222 98 -24 123 -27 292 -26
169 0 194 2 285 27 125 34 277 108 381 185 145 108 318 313 400 473 l24 48
-73 -72 c-92 -93 -179 -154 -298 -211 -137 -67 -226 -87 -399 -93 -171 -6
-280 10 -436 62 -556 186 -1082 722 -1409 1436 l-55 120 38 47 c91 111 132
222 139 378 9 178 -28 304 -130 441 -54 73 -159 150 -240 178 l-56 19 -7 65
c-8 78 1 343 16 456 33 249 88 436 185 630 316 637 938 831 1597 499 148 -75
314 -189 444 -306 l59 -53 -62 71 c-146 167 -350 341 -522 448 -270 167 -504
243 -766 251 -77 2 -147 2 -155 0z m-767 -2311 c91 -45 151 -117 187 -225 47
-137 8 -312 -92 -412 -62 -61 -128 -91 -213 -95 -138 -7 -252 67 -318 205 -30
63 -32 75 -32 173 1 85 5 116 23 162 26 63 93 145 149 180 88 54 204 59 296
12z"/>
<path d="M4280 4840 l0 -280 352 0 353 0 -220 -220 -220 -220 70 -62 c39 -34
129 -120 202 -191 l132 -130 48 43 c26 24 81 59 121 78 65 31 86 36 170 40 81
3 108 1 162 -18 85 -28 148 -70 207 -134 171 -187 164 -465 -17 -646 -120
-120 -274 -164 -439 -125 -182 43 -325 198 -354 384 l-11 71 -278 0 -278 0 0
-44 c0 -24 7 -81 15 -127 96 -551 609 -925 1161 -848 197 27 402 124 546 257
l58 54 55 -50 c241 -220 585 -314 905 -247 219 46 432 171 569 335 l47 57 80
-69 c444 -389 1082 -448 1585 -149 333 198 559 517 640 904 28 131 31 359 6
493 -78 426 -348 789 -733 982 -86 43 -249 98 -352 119 -120 24 -384 24 -504
0 -107 -21 -267 -76 -362 -124 -240 -121 -457 -335 -580 -571 -26 -51 -48 -92
-50 -92 -2 0 -50 22 -107 50 -57 27 -111 50 -119 50 -8 0 143 159 335 353
l350 352 -395 3 -395 2 -485 -485 c-267 -267 -490 -485 -496 -485 -5 0 -28 18
-49 41 -58 60 -201 152 -294 190 l-82 33 353 353 353 353 -1028 0 -1027 0 0
-280z m4540 -310 c224 -64 416 -229 514 -442 48 -105 68 -203 68 -333 -1 -138
-24 -232 -89 -358 -85 -166 -264 -321 -440 -382 -280 -97 -588 -31 -804 172
-163 154 -249 354 -249 578 0 392 274 713 668 785 75 14 248 3 332 -20z
m-1861 -652 c151 -51 265 -176 306 -335 81 -310 -203 -624 -520 -574 -234 36
-405 233 -405 466 0 134 47 241 149 338 129 123 303 162 470 105z"/>
<path d="M12498 5105 c-425 -58 -869 -292 -1258 -665 l-95 -91 105 79 c426
317 867 466 1278 431 301 -26 547 -141 763 -358 245 -245 388 -565 439 -981 5
-46 10 -170 10 -275 l0 -190 -73 -22 c-176 -53 -325 -200 -388 -383 -27 -80
-37 -233 -19 -323 16 -87 80 -215 140 -280 l51 -56 -51 -101 c-295 -589 -768
-1078 -1284 -1330 -166 -81 -269 -118 -432 -156 -159 -36 -402 -45 -550 -20
-239 41 -454 147 -635 313 l-63 58 24 -40 c60 -102 144 -209 240 -305 195
-196 415 -316 690 -376 120 -26 448 -27 570 -1 358 76 659 221 973 469 131
104 368 342 481 483 167 210 317 448 437 692 38 78 69 146 69 151 0 5 32 17
72 26 225 51 406 227 463 451 19 75 19 212 0 294 -29 119 -110 248 -210 331
l-30 25 0 260 c0 274 -8 361 -52 570 -78 378 -264 732 -499 956 -148 140 -373
271 -556 323 -188 54 -407 68 -610 41z m1519 -2305 c246 -114 303 -429 112
-620 -26 -26 -74 -61 -106 -77 -53 -25 -68 -28 -163 -28 -96 0 -110 3 -165 29
-154 76 -244 246 -215 408 29 157 152 286 304 318 68 15 164 2 233 -30z"/>
<path d="M2804 2086 c-3 -8 -1 -23 5 -34 5 -10 182 -214 391 -453 210 -239
386 -441 390 -450 6 -11 4 -23 -5 -35 -17 -24 -46 -24 -1053 -5 -408 8 -744
12 -747 9 -3 -3 15 -42 40 -87 l46 -81 1323 0 c1269 0 1324 1 1339 18 36 39
17 70 -172 282 -318 355 -533 603 -543 626 -8 18 -8 27 3 40 12 15 50 16 421
12 309 -3 405 -2 400 7 -4 7 -34 43 -67 82 l-60 69 -440 7 c-242 4 -626 7
-853 7 -347 0 -413 -2 -418 -14z"/>
<path d="M9770 1910 l-23 -142 -571 3 -571 2 -59 -22 c-113 -45 -168 -120
-210 -287 -25 -98 -59 -311 -72 -451 l-6 -71 63 -6 c35 -3 150 -7 255 -8 l191
-3 12 115 c22 213 52 393 73 442 21 50 71 101 117 120 31 13 658 11 717 -2 67
-15 67 -16 44 -206 -21 -175 -19 -210 11 -280 38 -90 152 -165 279 -182 102
-15 2211 -16 2290 -2 168 30 206 100 137 245 -19 39 -50 84 -70 102 -65 57
-232 109 -602 189 -228 48 -281 76 -223 114 19 13 94 16 458 20 l435 5 -2 48
c-4 70 -25 105 -70 113 -21 4 -271 4 -556 0 -460 -6 -525 -9 -591 -26 -185
-47 -257 -123 -227 -238 33 -122 164 -178 604 -262 206 -39 319 -75 331 -106
9 -24 -39 -45 -133 -59 -71 -11 -228 -12 -787 -7 -728 8 -718 7 -766 50 -22
19 -23 89 -4 290 14 141 29 191 59 192 6 1 105 0 219 0 l206 -1 11 53 c7 29
14 63 18 76 l6 23 -189 -7 c-161 -6 -198 -4 -246 10 -32 9 -61 23 -65 31 -5 8
-1 66 8 132 9 65 15 120 13 122 -2 2 -113 6 -247 9 l-244 5 -23 -143z"/>
<path d="M4855 1817 c-10 -30 -197 -1189 -192 -1193 2 -3 148 -1 323 3 l318 8
26 120 c15 66 30 133 34 149 l7 29 332 -5 c183 -3 360 -1 395 3 128 18 239 75
287 148 26 38 77 244 91 363 9 77 -22 179 -76 246 -46 58 -134 107 -220 121
-88 15 -1320 22 -1325 8z m947 -243 c57 -30 77 -116 59 -249 -28 -197 -27
-196 -218 -189 -81 3 -158 7 -170 10 -50 10 -65 104 -43 271 10 81 29 123 68
160 27 25 28 25 152 18 75 -4 135 -12 152 -21z"/>
<path d="M6942 1788 c-158 -23 -302 -118 -352 -232 -22 -50 -44 -163 -60 -314
-15 -139 -7 -175 53 -236 77 -76 70 -75 737 -73 569 2 586 3 630 23 99 45 153
135 197 325 48 209 30 314 -68 403 -57 51 -130 81 -236 95 -93 13 -826 20
-901 9z m564 -230 c13 -6 35 -28 47 -47 18 -30 22 -49 21 -121 -1 -111 -28
-231 -57 -258 -21 -19 -31 -20 -181 -15 -176 7 -186 10 -204 75 -10 38 2 217
18 279 6 21 26 55 45 75 l35 37 126 -7 c69 -4 136 -12 150 -18z"/>
</g>
</svg>
